<svg width="20" height="20" viewBox="0 0 20 20" fill="none" xmlns="http://www.w3.org/2000/svg">
<g id="loading-03" clip-path="url(#clip0_218_274)">
<path id="Icon" d="M2.78387 14.1658C1.74041 12.3576 2.27093 10.053 3.99862 8.88274L4.00047 8.88088C5.38836 7.94297 7.21512 7.97445 8.5706 8.95958L11.4306 11.0391C12.7852 12.0242 14.6119 12.0557 16.0008 11.1178L16.0026 11.116C17.7312 9.94564 18.2627 7.63928 17.2174 5.8329M14.1686 17.2154C12.3604 18.2589 10.0559 17.7284 8.88556 16.0007L8.88371 15.9988C7.9458 14.6109 7.97728 12.7842 8.96241 11.4287L11.0419 8.56866C12.0271 7.2141 12.0585 5.38734 11.1206 3.99853L11.1169 3.99667C9.94662 2.26991 7.64026 1.73753 5.83387 2.78285M15.8924 4.10686C19.1469 7.36132 19.1469 12.637 15.8924 15.8914C12.6379 19.1459 7.36229 19.1459 4.10784 15.8914C0.853378 12.637 0.853378 7.36132 4.10784 4.10686C7.36229 0.852401 12.6379 0.852401 15.8924 4.10686Z" stroke="white" stroke-width="1.5" stroke-linecap="round" stroke-linejoin="round"/>
</g>
<defs>
<clipPath id="clip0_218_274">
<rect width="20" height="20" fill="white"/>
</clipPath>
</defs>
</svg>
