<svg width="48" height="47" viewBox="0 0 48 47" fill="none" xmlns="http://www.w3.org/2000/svg">
<g id="list">
<path id="Icon" d="M41.2831 23.3278L18.1767 23.3278M41.2831 11.7747L18.1767 11.7747M41.2831 34.881L18.1767 34.881M10.4746 23.3278C10.4746 24.3913 9.61251 25.2534 8.54907 25.2534C7.48563 25.2534 6.62354 24.3913 6.62354 23.3278C6.62354 22.2644 7.48563 21.4023 8.54907 21.4023C9.61251 21.4023 10.4746 22.2644 10.4746 23.3278ZM10.4746 11.7747C10.4746 12.8381 9.61251 13.7002 8.54907 13.7002C7.48563 13.7002 6.62354 12.8381 6.62354 11.7747C6.62354 10.7112 7.48563 9.84912 8.54907 9.84912C9.61251 9.84912 10.4746 10.7112 10.4746 11.7747ZM10.4746 34.881C10.4746 35.9445 9.61251 36.8066 8.54907 36.8066C7.48563 36.8066 6.62354 35.9445 6.62354 34.881C6.62354 33.8176 7.48563 32.9555 8.54907 32.9555C9.61251 32.9555 10.4746 33.8176 10.4746 34.881Z" stroke="white" stroke-width="3.46596" stroke-linecap="round" stroke-linejoin="round"/>
</g>
</svg>
