<svg width="47" height="378" viewBox="0 0 47 378" fill="none" xmlns="http://www.w3.org/2000/svg">
<path d="M5.458 373.332L5.4 340.736L0.353995 340.91L0.353995 340.098L6.096 339.46L26.918 336.908L27.034 337.72C27.034 337.72 20.886 338.706 17.986 339.112C9.286 340.33 6.502 342.07 6.386 348.218C6.386 349.436 6.328 351.582 6.328 351.582L6.328 354.598L44.782 354.598L45.188 349.32L46 349.32L46 364.864L45.246 364.864C45.246 364.864 45.188 362.312 45.014 361.616C44.608 360.224 43.854 359.876 42.81 359.702C42.114 359.586 40.664 359.47 39.678 359.47L6.386 359.47L6.386 362.486C6.386 362.486 6.444 364.632 6.444 365.85C6.56 371.998 9.344 373.738 18.044 374.956C20.944 375.362 27.092 376.348 27.092 376.348L26.976 377.16L6.154 374.608L0.411999 373.97L0.411999 373.158L5.458 373.332ZM45.188 323.747L44.724 318.063L33.588 318.063L33.588 332.215L44.782 338.363L45.188 333.085L46 333.085L46 346.193L45.188 346.193C45.188 345.439 45.13 344.743 45.072 344.163C44.666 340.103 41.07 337.261 37.648 335.521L13.114 322.181L13.462 322.355C12.65 321.891 10.678 320.789 8.93799 320.093C8.64799 319.977 8.3 319.919 8.01 319.919C7.198 319.919 6.50199 320.325 6.444 321.717C6.386 322.529 6.212 333.665 6.212 333.665L5.4 333.665L5.39999 307.565L6.21199 307.565C6.21199 307.565 6.26999 310.233 6.50199 310.987C6.85 312.379 7.662 312.785 8.764 313.017C9.518 313.133 10.91 313.133 12.012 313.191L39.388 313.191C40.49 313.133 41.882 313.133 42.636 313.017C43.738 312.785 44.55 312.379 44.898 310.987C45.13 310.233 45.188 307.565 45.188 307.565L46 307.565L46 323.747L45.188 323.747ZM32.66 331.693L32.66 318.063L7.60399 318.063L32.66 331.693ZM46 306.432L45.188 306.432C45.188 306.432 45.13 303.764 44.898 303.01C44.55 301.676 43.738 301.212 42.636 301.038C41.882 300.864 39.91 300.864 38.402 300.864L12.012 300.864C10.91 300.864 9.518 300.864 8.764 301.038C7.662 301.212 6.85 301.676 6.50199 303.01C6.26999 303.764 6.21199 306.432 6.21199 306.432L5.39999 306.432L5.39999 294.6C5.39999 279.868 11.838 273.198 20.422 273.198C25.584 273.198 30.224 275.924 32.776 281.028L37.88 278.244C38.054 278.128 41.244 276.156 42.404 275.17C43.564 274.126 44.202 273.314 44.666 272.154C45.072 271.11 45.188 267.746 45.188 267.746L46 267.746L46 280.796L45.188 280.796L44.956 277.722L33.588 282.942C34.458 285.32 34.922 288.104 34.922 291.236L34.922 293.092L33.994 293.092L33.994 291.816C33.994 288.626 33.124 285.958 31.732 283.812L17.29 290.424L16.942 289.67L30.514 282.246C27.962 279.52 24.308 278.07 20.364 278.07C10.504 278.07 6.328 286.654 6.328 294.6L6.328 295.992L42.346 295.992L44.666 296.05L45.246 288.51L46 288.51L46 306.432ZM39.388 264.5L12.998 264.5C11.49 264.5 9.51799 264.5 8.76399 264.674C7.66199 264.848 6.84999 265.312 6.50199 266.646C6.26999 267.4 6.21199 270.068 6.21199 270.068L5.39999 270.068L5.39999 254.06L6.21199 254.06C6.21199 254.06 6.26999 256.728 6.50199 257.482C6.84999 258.816 7.66199 259.28 8.76399 259.454C9.51799 259.628 11.49 259.628 12.998 259.628L38.402 259.628C39.91 259.628 41.882 259.628 42.636 259.454C43.738 259.28 44.55 258.816 44.898 257.482C45.13 256.728 45.188 254.06 45.188 254.06L46 254.06L46 270.068L45.188 270.068C45.188 270.068 45.13 267.4 44.898 266.646C44.55 265.312 43.738 264.848 42.636 264.674C41.882 264.5 40.49 264.5 39.388 264.5ZM45.188 227.908L44.666 221.412L25.874 233.186L44.608 244.902L45.188 235.854L46 235.854L46 252.906L45.188 252.906C45.188 252.906 45.13 250.934 44.956 249.6C44.782 248.208 44.724 246.758 42.404 244.786C41.824 244.264 39.504 242.814 38.17 241.944L25.004 233.708L14.39 240.378C14.042 240.61 9.80799 243.278 8.99599 243.974C6.67599 245.946 6.61799 247.396 6.44399 248.788C6.26999 250.122 6.21199 252.094 6.21199 252.094L5.39999 252.094L5.39999 233.824L6.21199 233.824L6.67599 239.45L20.422 230.866L6.79199 222.34L6.21199 229.59L5.39999 229.59L5.39999 214.278L6.21199 214.278C6.21199 214.278 6.26999 216.25 6.44399 217.584C6.61799 218.976 6.67599 220.426 8.99599 222.398C9.80799 223.094 14.042 225.762 14.274 225.936L21.292 230.286L37.01 220.484C37.358 220.252 41.592 217.584 42.404 216.888C44.724 214.916 44.782 213.466 44.956 212.074C45.13 210.74 45.188 208.768 45.188 208.768L46 208.768L46 227.908L45.188 227.908ZM27.962 216.022L27.034 216.022L27.034 197.288L27.962 197.288L27.962 216.022ZM10.678 185.344C6.21199 185.344 4.52999 181.516 4.52999 177.05C4.52999 172.584 6.21199 167.48 8.53199 165.044L2.03599 165.798L1.91999 164.986L27.208 160.636C29.354 159.476 31.906 158.722 35.096 158.722C42.52 158.722 46.812 164.812 46.812 172.352C46.812 186.214 34.226 187.954 28.484 187.142L32.95 193.348L32.312 193.812L19.494 178.906C17.232 182.56 14.622 185.344 10.678 185.344ZM17 176.006L12.302 170.554L12.94 170.032L17.464 174.904C19.204 170.438 21.234 165.276 25.236 162.028C23.844 162.318 22.452 162.666 21.292 163.014C10.272 166.146 5.57399 173.338 5.57399 178.384C5.57399 181.516 7.37199 183.836 10.562 183.836C13.694 183.836 15.26 180.356 17 176.006ZM20.19 177.804L22.452 180.24C28.774 187.026 45.884 184.822 45.884 173.048C45.884 167.132 41.302 163.188 35.792 163.188C27.382 163.188 24.018 171.366 20.19 177.804ZM39.388 151.389L12.998 151.389C11.49 151.389 9.51799 151.389 8.76399 151.563C7.66199 151.737 6.84999 152.201 6.50199 153.535C6.26999 154.289 6.21199 156.957 6.21199 156.957L5.39999 156.957L5.39999 140.949L6.21199 140.949C6.21199 140.949 6.26999 143.617 6.50199 144.371C6.84999 145.705 7.66199 146.169 8.76399 146.343C9.51799 146.517 11.49 146.517 12.998 146.517L38.402 146.517C39.91 146.517 41.882 146.517 42.636 146.343C43.738 146.169 44.55 145.705 44.898 144.371C45.13 143.617 45.188 140.949 45.188 140.949L46 140.949L46 156.957L45.188 156.957C45.188 156.957 45.13 154.289 44.898 153.535C44.55 152.201 43.738 151.737 42.636 151.563C41.882 151.389 40.49 151.389 39.388 151.389ZM6.21199 110.795L5.39999 110.795L5.39999 98.963L6.21199 98.963C6.21199 98.963 6.26998 101.631 6.50198 102.385C6.84999 103.777 7.66199 104.183 8.76399 104.415C9.45998 104.531 10.736 104.531 11.78 104.589L46 104.531L46 105.459L8.24199 133.299L44.724 133.299L45.188 127.325L46 127.325L46 139.795L45.188 139.795C45.188 139.795 45.13 137.127 44.898 136.373C44.55 135.039 43.738 134.575 42.636 134.401C41.882 134.227 40.49 134.227 39.388 134.227L12.998 134.227C11.49 134.227 9.51799 134.227 8.76399 134.401C7.66199 134.575 6.84999 135.039 6.50199 136.373C6.26999 137.127 6.21199 139.795 6.21199 139.795L5.39999 139.795L5.39999 129.355L37.764 105.459L6.84999 105.517L6.21199 110.795ZM45.188 82.3451L44.724 76.6611L33.588 76.6611L33.588 90.8131L44.782 96.9611L45.188 91.6831L46 91.6831L46 104.791L45.188 104.791C45.188 104.037 45.13 103.341 45.072 102.761C44.666 98.7011 41.07 95.8591 37.648 94.1191L13.114 80.7791L13.462 80.9531C12.65 80.4891 10.678 79.3871 8.93798 78.6911C8.64798 78.5751 8.29998 78.5171 8.00999 78.5171C7.19799 78.5171 6.50198 78.9231 6.44398 80.3151C6.38599 81.1271 6.21198 92.2631 6.21198 92.2631L5.39998 92.2631L5.39998 66.1631L6.21198 66.1631C6.21198 66.1631 6.26998 68.8311 6.50198 69.5851C6.84999 70.9771 7.66199 71.3831 8.76399 71.6151C9.51799 71.7311 10.91 71.7311 12.012 71.7891L39.388 71.7891C40.49 71.7311 41.882 71.7311 42.636 71.6151C43.738 71.3831 44.55 70.9771 44.898 69.5851C45.13 68.8311 45.188 66.1631 45.188 66.1631L46 66.1631L46 82.3451L45.188 82.3451ZM32.66 90.2911L32.66 76.6611L7.60398 76.6611L32.66 90.2911ZM46 47.1074L46 65.0294L45.188 65.0294C45.188 65.0294 45.13 62.3614 44.898 61.6074C44.55 60.2734 43.738 59.8094 42.636 59.6354C41.882 59.4614 39.91 59.4614 38.402 59.4614L12.012 59.4614C10.91 59.4614 9.51799 59.4614 8.76399 59.6354C7.66199 59.8094 6.84999 60.2734 6.50198 61.6074C6.26998 62.3614 6.21198 65.0294 6.21198 65.0294L5.39998 65.0294L5.39998 53.1974C5.39998 38.4654 11.838 31.7954 20.422 31.7954C28.368 31.7954 34.922 38.2334 34.922 49.8334L34.922 51.6894L33.994 51.6894L33.994 50.4134C33.994 41.5974 27.614 36.6674 20.364 36.6674C10.504 36.6674 6.32798 45.2514 6.32799 53.1974L6.32799 54.5894L42.346 54.5894L44.666 54.6474L45.246 47.1074L46 47.1074ZM10.678 26.8069C6.21198 26.8069 4.52998 22.9789 4.52998 18.5129C4.52998 14.0469 6.21198 8.94292 8.53198 6.50692L2.03598 7.26092L1.91998 6.44892L27.208 2.09892C29.354 0.93892 31.906 0.184919 35.096 0.184919C42.52 0.184919 46.812 6.27492 46.812 13.8149C46.812 27.6769 34.226 29.4169 28.484 28.6049L32.95 34.8109L32.312 35.2749L19.494 20.3689C17.232 24.0229 14.622 26.8069 10.678 26.8069ZM17 17.4689L12.302 12.0169L12.94 11.4949L17.464 16.3669C19.204 11.9009 21.234 6.73892 25.236 3.49092C23.844 3.78092 22.452 4.12892 21.292 4.47692C10.272 7.60892 5.57398 14.8009 5.57398 19.8469C5.57398 22.9789 7.37198 25.2989 10.562 25.2989C13.694 25.2989 15.26 21.8189 17 17.4689ZM20.19 19.2669L22.452 21.7029C28.774 28.4889 45.884 26.2849 45.884 14.5109C45.884 8.59492 41.302 4.65092 35.792 4.65092C27.382 4.65092 24.018 12.8289 20.19 19.2669Z" fill="white"/>
</svg>
