<svg width="20" height="20" viewBox="0 0 20 20" fill="none" xmlns="http://www.w3.org/2000/svg">
<g id="info-square">
<path id="Icon" d="M2.91669 4.05556C2.91669 3.51106 2.91669 3.23881 3.02265 3.03084C3.11586 2.84791 3.26459 2.69918 3.44753 2.60597C3.6555 2.5 3.92775 2.5 4.47224 2.5H7.19447C7.73896 2.5 8.01121 2.5 8.21918 2.60597C8.40211 2.69918 8.55084 2.84791 8.64405 3.03084C8.75002 3.23881 8.75002 3.51106 8.75002 4.05556V6.77778C8.75002 7.32227 8.75002 7.59452 8.64405 7.80249C8.55084 7.98543 8.40211 8.13416 8.21918 8.22737C8.01121 8.33333 7.73896 8.33333 7.19446 8.33333H4.47224C3.92775 8.33333 3.6555 8.33333 3.44753 8.22737C3.26459 8.13416 3.11586 7.98543 3.02265 7.80249C2.91669 7.59452 2.91669 7.32227 2.91669 6.77778V4.05556Z" stroke="white" stroke-width="1.5" stroke-linecap="round" stroke-linejoin="round"/>
<path id="Icon_2" d="M2.91669 12.6925C2.91669 12.148 2.91669 11.8758 3.02265 11.6678C3.11586 11.4849 3.26459 11.3361 3.44753 11.2429C3.6555 11.137 3.92775 11.137 4.47224 11.137H7.19447C7.73896 11.137 8.01121 11.137 8.21918 11.2429C8.40211 11.3361 8.55084 11.4849 8.64405 11.6678C8.75002 11.8758 8.75002 12.148 8.75002 12.6925V15.4147C8.75002 15.9592 8.75002 16.2315 8.64405 16.4395C8.55084 16.6224 8.40211 16.7711 8.21918 16.8643C8.01121 16.9703 7.73896 16.9703 7.19446 16.9703H4.47224C3.92775 16.9703 3.6555 16.9703 3.44753 16.8643C3.26459 16.7711 3.11586 16.6224 3.02265 16.4395C2.91669 16.2315 2.91669 15.9592 2.91669 15.4147V12.6925Z" stroke="white" stroke-width="1.5" stroke-linecap="round" stroke-linejoin="round"/>
<path id="Icon_3" d="M11.25 4.05556C11.25 3.51106 11.25 3.23881 11.356 3.03084C11.4492 2.84791 11.5979 2.69918 11.7808 2.60597C11.9888 2.5 12.2611 2.5 12.8056 2.5H15.5278C16.0723 2.5 16.3445 2.5 16.5525 2.60597C16.7354 2.69918 16.8842 2.84791 16.9774 3.03084C17.0833 3.23881 17.0833 3.51106 17.0833 4.05556V6.77778C17.0833 7.32227 17.0833 7.59452 16.9774 7.80249C16.8842 7.98543 16.7354 8.13416 16.5525 8.22737C16.3445 8.33333 16.0723 8.33333 15.5278 8.33333H12.8056C12.2611 8.33333 11.9888 8.33333 11.7808 8.22737C11.5979 8.13416 11.4492 7.98543 11.356 7.80249C11.25 7.59452 11.25 7.32227 11.25 6.77778V4.05556Z" stroke="white" stroke-width="1.5" stroke-linecap="round" stroke-linejoin="round"/>
<path id="Icon_4" d="M11.25 12.6925C11.25 12.148 11.25 11.8758 11.356 11.6678C11.4492 11.4849 11.5979 11.3361 11.7808 11.2429C11.9888 11.137 12.2611 11.137 12.8056 11.137H15.5278C16.0723 11.137 16.3445 11.137 16.5525 11.2429C16.7354 11.3361 16.8842 11.4849 16.9774 11.6678C17.0833 11.8758 17.0833 12.148 17.0833 12.6925V15.4147C17.0833 15.9592 17.0833 16.2315 16.9774 16.4395C16.8842 16.6224 16.7354 16.7711 16.5525 16.8643C16.3445 16.9703 16.0723 16.9703 15.5278 16.9703H12.8056C12.2611 16.9703 11.9888 16.9703 11.7808 16.8643C11.5979 16.7711 11.4492 16.6224 11.356 16.4395C11.25 16.2315 11.25 15.9592 11.25 15.4147V12.6925Z" stroke="white" stroke-width="1.5" stroke-linecap="round" stroke-linejoin="round"/>
</g>
</svg>
