<svg width="18" height="48" viewBox="0 0 18 48" fill="none" xmlns="http://www.w3.org/2000/svg">
<path d="M15.98 37.98L16 47.78C11.14 47.8 9.48 39 4.84 39C3.1 39 2.14 40.18 2.14 41.6C2.14 44.46 5.72 46.28 9.06 46.6L9.06 46.88L0.259999 46.4L0.259999 46.12L3.74 46.08C3.3 45.5 1.78 44.16 1.78 41.42C1.78 38.74 2.98 37.32 4.72 37.32C9.24 37.32 9.26 45.86 15.66 46.06L15.66 41.72C15.66 41.72 15.64 40.98 15.64 40.56C15.6 38.44 14.64 37.88 11.64 37.42C10.62 37.26 8.52 36.94 8.52 36.94L8.56 36.66L15.74 37.54L17.72 37.76L17.72 38.04L15.98 37.98ZM9.04 35.8664C4.68 35.8664 1.7 33.5264 1.7 30.4264C1.7 26.6264 5.6 24.4464 9.04 24.4464C13.26 24.4464 16.22 27.0064 16.22 30.0464C16.22 33.7664 12.42 35.8664 9.04 35.8664ZM10.72 25.5464C7.5 25.5464 2.54 27.7464 2.54 31.6264C2.54 33.7064 4.6 34.7464 7.22 34.7464C10.7 34.7464 15.38 32.5464 15.38 28.9264C15.38 26.8064 13.44 25.5464 10.72 25.5464ZM15.98 14.23L16 24.03C11.14 24.05 9.48 15.25 4.84 15.25C3.1 15.25 2.14 16.43 2.14 17.85C2.14 20.71 5.72 22.53 9.06 22.85L9.06 23.13L0.259998 22.65L0.259998 22.37L3.74 22.33C3.3 21.75 1.78 20.41 1.78 17.67C1.78 14.99 2.98 13.57 4.72 13.57C9.24 13.57 9.26 22.11 15.66 22.31L15.66 17.97C15.66 17.97 15.64 17.23 15.64 16.81C15.6 14.69 14.64 14.13 11.64 13.67C10.62 13.51 8.52 13.19 8.52 13.19L8.56 12.91L15.74 13.79L17.72 14.01L17.72 14.29L15.98 14.23ZM2.3 5.45641L2.3 5.63641C2.3 6.59641 2.28 7.95641 2.36 9.69641C2.38 10.2764 2.82 10.5764 3.84 10.7564C4.92 10.9564 7.72 11.3164 7.72 11.3164L7.68 11.6364L0.239997 10.7964L0.239997 10.5164L1.98 10.5764L1.98 2.85641L2.3 2.85641L7.06 6.03641C6.3 4.61641 5.98 0.436405 9.64 0.436405C12.66 0.436405 16.34 3.23641 16.34 6.91641C16.34 14.4164 9.32 12.6964 5.26 8.53641L5.48 8.31641C5.48 8.31641 6.24 9.13641 7.46 9.97641C8.74 10.8564 10.48 11.7764 12.44 11.7764C14.86 11.7764 15.88 9.71641 15.88 7.95641C15.88 4.85641 11.88 1.9364 8.68 1.9364C7.66 1.9364 6.9 2.51641 6.9 3.59641C6.9 5.71641 9.48 7.53641 10.14 8.09641L9.94 8.33641L4.14 4.47641C3.04 3.73641 2.3 4.13641 2.3 5.45641Z" fill="white"/>
</svg>
